<svg xmlns="http://www.w3.org/2000/svg" viewBox="0 0 47.09 50">
  <defs>
    <style>
      .cls-1 {
        fill: #f2760d;
      }
    </style>
  </defs>
  <g id="video-promotion" transform="translate(-9.736 -7.248)">
    <g id="Group_1178" data-name="Group 1178" transform="translate(9.736 7.248)">
      <path id="Path_15704" data-name="Path 15704" class="cls-1" d="M56.549,9.486,11.358,7.248c-.006,0-.012,0-.019,0a.274.274,0,0,0-.061.009.375.375,0,0,0-.053.016c-.007,0-.013,0-.02.006L9.89,7.989a.292.292,0,0,0-.154.257L9.777,55.5a.973.973,0,0,0,.333.816,1.515,1.515,0,0,0,1.464.039c1.282-.451,3.711-1.092,4.416-1.276,1,.753,6.585,1.482,16.629,2.171h1.3a.294.294,0,0,0,.1-.018l17.02-6.221a1.042,1.042,0,0,0,.654-.794c.033-.44-.3-.865-1.017-1.3-1.239-.756-2.737-1.766-3.438-2.244A62.757,62.757,0,0,1,56.622,42.9a.293.293,0,0,0,.2-.279V9.778A.291.291,0,0,0,56.549,9.486Zm-8.93,39.1a.291.291,0,0,1,.137.282.3.3,0,0,1-.2.244L30.091,54.966a4.8,4.8,0,0,1-2.151.328,23.508,23.508,0,0,1-5.723-.878,9.962,9.962,0,0,1-2.17-.75.292.292,0,0,1,.054-.538l25.319-7.507a.293.293,0,0,1,.354.391l-.3.719a.673.673,0,0,0,.248.654C46.217,47.715,47.618,48.581,47.619,48.582Zm8.728-6.834-44.669,12.9.063-46.825,44.607,2.209Z" transform="translate(-9.736 -7.248)"/>
      <path id="Path_15705" data-name="Path 15705" class="cls-1" d="M55.007,11.27l-40.891-2-.057,42.191L55.007,39.8Z" transform="translate(-9.736 -7.248)"/>
    </g>
  </g>
</svg>
