<svg id="video-music" xmlns="http://www.w3.org/2000/svg" viewBox="0 0 50.625 44">
  <defs>
    <style>
      .cls-1 {
        fill: #f2760d;
      }
    </style>
  </defs>
  <g id="Group_1183" data-name="Group 1183">
    <path id="Path_15719" data-name="Path 15719" class="cls-1" d="M23,24V24Z" transform="translate(13.386 11.199)"/>
    <path id="Path_15720" data-name="Path 15720" class="cls-1" d="M43.9,7.5a3.855,3.855,0,0,0-3.313-.7L24.475,10.829a5.81,5.81,0,0,0-4.4,5.637V34.077H13.749a4.746,4.746,0,1,0,0,9.492h4.743a4.745,4.745,0,0,0,4.746-4.746V20.472l18.984-4.43V29.331H35.9a4.746,4.746,0,1,0,0,9.492H40.64a4.746,4.746,0,0,0,4.746-4.746V10.548A3.862,3.862,0,0,0,43.9,7.5Z" transform="translate(5.238 0.431)"/>
    <path id="Path_15721" data-name="Path 15721" class="cls-1" d="M9,27V27Z" transform="translate(5.238 12.253)"/>
    <path id="Path_15722" data-name="Path 15722" class="cls-1" d="M12.656,39.6H11.134a1.586,1.586,0,0,1-1.642-1.522V26.456a1.586,1.586,0,0,1,1.642-1.522h12.6V19.067h-12.6a1.586,1.586,0,0,1-1.642-1.522V5.922A1.586,1.586,0,0,1,11.134,4.4H30A1.586,1.586,0,0,1,31.64,5.922v5.767l3.164-.733V8.8h3.164v1.423l3.164-.733V3.181A3.313,3.313,0,0,0,37.7,0H3.431A3.313,3.313,0,0,0,0,3.181V40.819A3.313,3.313,0,0,0,3.431,44H14.846a5.672,5.672,0,0,1-2.19-4.4ZM34.8,2.995h3.164V5.928H34.8ZM6.328,41.128H3.164V38.195H6.328Zm0-5.867H3.164V32.328H6.328Zm0-5.867H3.164V26.462H6.328Zm0-5.867H3.164V20.595H6.328Zm0-5.867H3.164V14.728H6.328Zm0-5.867H3.164V8.862H6.328Zm0-5.867H3.164V2.995H6.328Z"/>
  </g>
</svg>
