<svg xmlns="http://www.w3.org/2000/svg" viewBox="0 0 59.5 50">
  <defs>
    <style>
      .cls-1 {
        fill: #f2760d;
      }
    </style>
  </defs>
  <path id="video-corporate" class="cls-1" d="M30.007,50c-.3,0-.507-.166-.507-.4V26.869c0-.232.212-.4.507-.4H58.993c.3,0,.507.166.507.4V49.6c0,.232-.211.4-.507.4Zm24-4.143v2.187c0,.232.211.4.507.4H57.3c.3,0,.507-.166.507-.4V45.858c0-.232-.211-.4-.507-.4H54.514C54.219,45.46,54.007,45.625,54.007,45.858Zm-7.606,0v2.187c0,.232.211.4.508.4H49.7c.3,0,.508-.166.508-.4V45.858c0-.232-.211-.4-.508-.4H46.909C46.613,45.46,46.4,45.625,46.4,45.858Zm-7.6,0v2.187c0,.232.211.4.507.4h2.789c.3,0,.507-.166.507-.4V45.858c0-.232-.211-.4-.507-.4H39.3C39.007,45.46,38.8,45.625,38.8,45.858Zm-7.606,0v2.187c0,.232.212.4.507.4h2.789c.3,0,.507-.166.507-.4V45.858c0-.232-.211-.4-.507-.4H31.7C31.4,45.46,31.19,45.625,31.19,45.858Zm9.549-11.964v8.683c0,.7,1.1,1.06,1.732.563L48.007,38.8a.7.7,0,0,0,0-1.127l-5.535-4.342a1.163,1.163,0,0,0-.718-.237A.918.918,0,0,0,40.739,33.894Zm13.268-5.468v2.188c0,.232.211.4.507.4H57.3a.466.466,0,0,0,.507-.4V28.426c0-.231-.211-.4-.507-.4H54.514C54.219,28.029,54.007,28.194,54.007,28.426Zm-7.606,0v2.188c0,.232.211.4.508.4H49.7a.467.467,0,0,0,.508-.4V28.426c0-.231-.211-.4-.508-.4H46.909C46.613,28.029,46.4,28.194,46.4,28.426Zm-7.6,0v2.188c0,.232.211.4.507.4h2.789c.3,0,.507-.166.507-.4V28.426c0-.231-.211-.4-.507-.4H39.3C39.007,28.029,38.8,28.194,38.8,28.426Zm-7.606,0v2.188c0,.232.212.4.507.4h2.789a.466.466,0,0,0,.507-.4V28.426c0-.231-.211-.4-.507-.4H31.7C31.4,28.029,31.19,28.194,31.19,28.426Zm-4.266,14.44H3.519A3.734,3.734,0,0,1,0,38.878V20.1H19.737V23.22h4.605V20.1H44.523v3.761h-15.6a2,2,0,0,0-2,2v17h0ZM19.736,18.8H0V9.661A3.734,3.734,0,0,1,3.519,5.674h11.3V1.534A1.41,1.41,0,0,1,16.1,0H28.419A1.445,1.445,0,0,1,29.7,1.534V5.674H41a3.734,3.734,0,0,1,3.518,3.987V18.8H24.342V17.415H19.737V18.8h0ZM16.646,5.674H28.081V1.993H16.646Z"/>
</svg>
