<svg xmlns="http://www.w3.org/2000/svg" viewBox="0 0 51.365 50">
  <defs>
    <style>
      .cls-1 {
        fill: #f2760d;
      }
    </style>
  </defs>
  <g id="video-concerts" transform="translate(-4 -8)">
    <path id="Path_15706" data-name="Path 15706" class="cls-1" d="M53.432,27.088,44.65,10.982l1.823-1.856C46.859,8.8,46.638,8,46.141,8H36.421L18.25,20.526,35.7,20l-.11.6-19.717.663-1.546,5.5h-.5l1.1-3.91L9.3,26.558H7.314v4.706l30.377,1.259v1.259L14.163,32.456,4,31.992V37.56l1.1.133V53.239l1.27.53.939-.331V37.891l14.912,1.524V49.944l-1.049-.133-2.264.928V51.4l1.27.331-1.326.729.994.331,1.381-.8.718.2-1.546.994,1.16.464,1.546-1.127.884.265-1.6,1.193,1.381.53,1.6-1.392,1.27.331L28.854,51.8V51L27.2,50.739V39.946l6.075.663v11.57l1.215.4.994-.331V40.807l5.523.53V33.517h.552v7.754l.552-.066V57.536L43.6,58l1.27-.331V41.139l10.494-.663V27.154ZM25.54,50.407l-1.657-.265V39.548l1.657.2ZM36.807,35.439l-30.6-1.723v-.663l30.6,1.723Zm7.953-8.881h-.994v6.628h-.552V26.558H34.377l.5-2.585L38.022,20A2.246,2.246,0,0,0,38.464,19l.11-1.06a2.623,2.623,0,0,1,.663-1.458l4.86-4.9,7.953,15.376Z" transform="translate(0)"/>
  </g>
</svg>
