<svg xmlns="http://www.w3.org/2000/svg" viewBox="0 0 50 47.188">
  <defs>
    <style>
      .cls-1 {
        fill: #f2760d;
      }
    </style>
  </defs>
  <g id="video-sport" transform="translate(-155 -590.3)">
    <path id="Path_15707" data-name="Path 15707" class="cls-1" d="M-210.11,409.758v-3.374h0v-5.828h-3.681a7.207,7.207,0,0,0-3.528-5.112,3.892,3.892,0,0,0,.153-1.074,4.5,4.5,0,0,0-.1-.869,7.934,7.934,0,0,0,2.71-1.994,8.733,8.733,0,0,0,1.585.153,7.036,7.036,0,0,0,4.652-1.585c2.1-1.687,3.323-4.7,3.323-8.129a13.844,13.844,0,0,0-.46-3.63l-.2-.716h-5.215c-.051-.511-.153-1.022-.256-1.534l-.2-.767H-230.56l-.2.767c-.1.511-.2,1.022-.256,1.534h-5.215l-.2.716a13.844,13.844,0,0,0-.46,3.63c0,3.374,1.227,6.442,3.323,8.129a7.317,7.317,0,0,0,4.652,1.585,8.736,8.736,0,0,0,1.585-.153,11.224,11.224,0,0,0,2.71,1.994,5.038,5.038,0,0,0-.1.869,3.893,3.893,0,0,0,.153,1.074,7.207,7.207,0,0,0-3.528,5.112h-3.681v5.164H-246v16.769h50v-12.73Zm-28.323,8.129h-2.045v-3.732h2.045Zm3.528,0h-2.045v-3.732h2.045Zm24.182-37.628v-.665h3.528a11.512,11.512,0,0,1,.2,2.352,8.335,8.335,0,0,1-2.607,6.544,5.5,5.5,0,0,1-3.528,1.125A17.638,17.638,0,0,0-210.724,380.259ZM-232.3,388.49a8.411,8.411,0,0,1-2.607-6.544,11.843,11.843,0,0,1,.2-2.352h3.528v.665a17.638,17.638,0,0,0,2.4,9.356A5.054,5.054,0,0,1-232.3,388.49Zm13.855,29.192H-223.1v-2.045h1.329v-5.112h2.045v5.164h1.329v1.994Zm-7.566-17.28a5.058,5.058,0,0,1,3.119-3.528l1.227-.46-.716-1.074a1.683,1.683,0,0,1-.307-.971,1.913,1.913,0,0,1,.256-.92l.665-1.125-1.278-.358c-4.243-1.329-6.135-6.851-6.135-11.708a18.294,18.294,0,0,1,.256-2.965h11.554c.051.716.1,1.431.1,2.2,0,4.6-1.278,8.384-3.17,9.254l.869,1.84c3.17-1.483,4.294-6.9,4.294-11.094,0-.767-.051-1.483-.1-2.2h2.4a18.293,18.293,0,0,1,.256,2.965c0,4.857-1.892,10.378-6.135,11.708l-1.227.409.665,1.125a1.913,1.913,0,0,1,.256.92,1.573,1.573,0,0,1-.307.971l-.716,1.074,1.227.46a5.058,5.058,0,0,1,3.119,3.528l-10.174-.051Zm19.427,17.485h-2.045v-3.732h2.045Zm3.579,0h-2.045v-3.732H-203Zm3.323,0h-2.045v-3.732h2.045Z" transform="translate(401 215)"/>
  </g>
</svg>
