<svg xmlns="http://www.w3.org/2000/svg" xmlns:xlink="http://www.w3.org/1999/xlink" viewBox="0 0 64.151 50">
  <defs>
    <style>
      .cls-1, .cls-3 {
        fill: #f2760d;
      }

      .cls-1 {
        stroke: #707070;
      }

      .cls-2 {
        clip-path: url(#clip-path);
      }
    </style>
    <clipPath id="clip-path">
      <rect id="Rectangle_198" data-name="Rectangle 198" class="cls-1" width="64.151" height="50" transform="translate(-5672 937)"/>
    </clipPath>
  </defs>
  <g id="video-social" class="cls-2" transform="translate(5672 -937)">
    <g id="noun_give_love_509976" data-name="noun_give love_509976" transform="translate(-5671.451 937.657)">
      <g id="Group_1181" data-name="Group 1181" transform="translate(0 7.149)">
        <path id="Path_15716" data-name="Path 15716" class="cls-3" d="M31.762,24.339c-4.049.242-5.378,4.951-7,7.527-1.9.675-2.474,2.272-5.2-11.14-.508-2.505-.9-10.565-3.716-8.016-.772,2.288,1.279,11.824.776,13.922-1.137-3.253-2.263-13.529-4.141-16.315-.827-1.227-1.884-.347-2.158.886-.021,3.726,2.485,12.586,2.449,16.154C11.139,25.6,10.729,13.1,7.609,13.367c-.9.076-1.114,1.534-1,2.437.447,3.48,2.533,12.317,2.287,13.523C7.616,28.18,6.405,19.781,4.244,18.769c-1.551-.727-2.122.645-1.261,3.547A83.925,83.925,0,0,1,5.5,31.582c.237,1.59.878,3.758,1.206,5.161.927,3.971,1.964,4.4,3.51,7.374,1.172,2.253,1.026,4.617,1.072,7.405.083,5.056.493,8.727.321,13.159,5.736,0,8.973-.362,15.612-.362a88.363,88.363,0,0,1-3.359-14.138c-.328-1.91-1.075-4.136-.909-6.126.239-2.859,4.334-5.133,5.457-7.2.673-1.237.694-2.877,1.143-4.307a17.166,17.166,0,0,1,1.242-2.5c.491-.923.849-1.972,1.242-2.5.634-.849,1.878-1.048,1.676-2.163C33.611,24.811,32.849,24.274,31.762,24.339ZM19.17,35.7l-2.986,3.857L12.371,36.6a2.077,2.077,0,0,1,2.543-3.284l.529.41.443-.572A2.076,2.076,0,0,1,19.17,35.7Z" transform="translate(-2.582 -9.727)"/>
      </g>
      <g id="Group_1182" data-name="Group 1182" transform="translate(28.333 0)">
        <path id="Path_15717" data-name="Path 15717" class="cls-3" d="M77.172,14.311c-2.216,2.128-4.587,10.5-6.14,11.712-.188-1.4,3.448-12.172,4.229-16.117a1.741,1.741,0,0,0-1.518-2.033c-2.53-.529-4.985,13.714-6.991,15.594.236-4.082,3.789-14.019,4.055-18.282-.217-1.431-1.358-2.519-2.4-1.18C66.042,7.046,63.476,18.8,61.925,22.429c-.643-3.808,4.649-15.645,2.395-17.345C62.184,3.475,61,6.786,58.784,15.257c-3.971,15.173-3.1,11.862-5.216,10.943-1.667-7.078-7.456-10.1-9.087-6.864C43.9,20.5,46.6,21.507,47.256,22.527a17.8,17.8,0,0,1,.927,2.193c.612,1.366.3,2.789.494,3.6.4,1.669.156,3.092.83,4.559,1.124,2.445,4.252,5.6,4.3,8.89.035,2.289-.991,4.777-1.515,6.935a101.3,101.3,0,0,1-4.94,15.905c9.078.657,5.813.437,17.7.688.146-5.083,1.027-8.311,1.515-14.086.269-3.185.287-5.9,1.8-8.386,2-3.277,3.218-3.688,4.587-8.157.484-1.58,1.385-4.009,1.779-5.809a65.467,65.467,0,0,1,3.6-10.4C80.04,14.732,78.587,12.95,77.172,14.311ZM67.125,33.531l-4.986,2.529-2.5-4.931a2.38,2.38,0,0,1,4.246-2.152l.347.685.74-.375a2.379,2.379,0,0,1,2.153,4.244Z" transform="translate(-44.399 -3.397)"/>
      </g>
    </g>
  </g>
</svg>
